<?xml version="1.0" encoding="UTF-8" standalone="no"?>
<!-- Created with Inkscape (http://www.inkscape.org/) -->

<svg
   width="135.467mm"
   height="135.467mm"
   viewBox="0 0 135.467 135.467"
   version="1.1"
   id="svg5"
   inkscape:version="1.1 (c68e22c387, 2021-05-23)"
   sodipodi:docname="icon.svg"
   xmlns:inkscape="http://www.inkscape.org/namespaces/inkscape"
   xmlns:sodipodi="http://sodipodi.sourceforge.net/DTD/sodipodi-0.dtd"
   xmlns:xlink="http://www.w3.org/1999/xlink"
   xmlns="http://www.w3.org/2000/svg"
   xmlns:svg="http://www.w3.org/2000/svg">
  <sodipodi:namedview
     id="namedview7"
     pagecolor="#ffffff"
     bordercolor="#666666"
     borderopacity="1.0"
     inkscape:pageshadow="2"
     inkscape:pageopacity="0.0"
     inkscape:pagecheckerboard="0"
     inkscape:document-units="mm"
     showgrid="false"
     inkscape:zoom="0.36168631"
     inkscape:cx="-113.3579"
     inkscape:cy="105.06342"
     inkscape:window-width="1275"
     inkscape:window-height="956"
     inkscape:window-x="558"
     inkscape:window-y="5"
     inkscape:window-maximized="0"
     inkscape:current-layer="g43" />
  <defs
     id="defs2">
    <linearGradient
       id="SVGID_2_-3"
       gradientUnits="userSpaceOnUse"
       x1="271.38559"
       y1="168.14059"
       x2="271.38559"
       y2="336.435">
      <stop
         offset="0"
         style="stop-color:#FFFFFF"
         id="stop24-8" />
      <stop
         offset="0.9704"
         style="stop-color:#F7F7F7"
         id="stop26-3" />
    </linearGradient>
  </defs>
  <g
     inkscape:label="レイヤー 1"
     inkscape:groupmode="layer"
     id="layer1">
    <g
       id="g45"
       transform="scale(0.26458333)">
	<rect
   style="opacity:0;fill:#ffffff"
   width="512"
   height="512"
   id="rect9"
   x="0"
   y="0" />

	<path
   style="opacity:0.1;fill:#040000"
   d="M 512,305.408 V 512 H 216.935 L 90.522,385.587 86.119,381.183 V 218.317 c 0,-1.127 0.154,-2.048 0.461,-2.867 0,-0.051 0.051,-0.051 0.051,-0.051 0.307,-0.205 0.614,-0.359 0.922,-0.564 l 4.147,-2.458 8.55,-5.069 c 5.427,-3.123 14.234,-8.346 19.61,-11.469 l 0.614,-0.359 2.611,-26.829 36.915,3.586 6.963,-4.096 78.08,-45.926 c 3.021,-1.689 7.066,-2.458 10.957,-2.253 3.891,-0.204 7.987,0.564 10.957,2.253 l 52.275,30.72 25.805,15.206 6.707,3.943 24.474,-2.458 49.613,49.613 c 0,0 0.051,0 0.051,0.051 z"
   id="path11" />

	<g
   id="g43">
		<path
   style="fill:#6a94ff;fill-opacity:1"
   d="m 425.882,218.317 v 6.604 c -0.41,0.256 -0.973,0.564 -1.434,0.871 l -12.698,7.527 c -0.921,0.511 -1.792,1.126 -2.867,1.689 0,0.051 -0.051,0.051 -0.051,0.051 h -0.051 c -3.277,1.895 -7.168,4.147 -10.65,6.196 -2.202,1.331 -4.301,2.509 -5.99,3.533 l -16.026,9.42 -6.195,3.636 -83.712,49.203 -1.433,0.871 -0.973,0.563 -2.97,1.741 -2.202,1.331 -7.731,4.557 -3.943,2.304 c -1.382,0.768 -2.918,1.331 -4.557,1.741 -0.153,0.051 -0.307,0.051 -0.461,0.102 -1.894,0.409 -3.943,0.563 -5.939,0.461 -1.997,0.102 -4.045,-0.051 -5.939,-0.461 -0.154,-0.051 -0.307,-0.051 -0.461,-0.102 -1.638,-0.41 -3.174,-0.973 -4.557,-1.741 l -3.943,-2.355 -3.942,-2.304 -3.789,-2.202 -1.69,-1.024 -0.512,-0.307 -2.97,-1.741 -40.602,-23.859 -43.366,-25.497 -8.346,-4.916 -16.026,-9.42 c -1.177,-0.666 -2.509,-1.485 -3.942,-2.304 -3.993,-2.356 -8.755,-5.171 -12.698,-7.424 h -0.051 c 0,0 -0.051,0 -0.051,-0.051 -1.075,-0.563 -1.946,-1.178 -2.867,-1.689 L 87.55,225.794 c -0.461,-0.307 -1.024,-0.614 -1.434,-0.871 v -6.604 c 0,-1.127 0.154,-2.048 0.461,-2.867 0,-0.051 0.051,-0.051 0.051,-0.051 0.307,-0.205 0.614,-0.359 0.922,-0.564 l 4.147,-2.458 8.55,-5.069 c 5.427,-3.123 14.234,-8.346 19.61,-11.469 l 0.614,-0.359 15.411,-9.063 24.118,-14.182 6.963,-4.096 78.08,-45.926 c 3.021,-1.689 7.066,-2.458 10.957,-2.253 3.891,-0.204 7.987,0.564 10.957,2.253 l 52.275,30.72 25.805,15.206 6.707,3.943 24.371,14.336 16.026,9.421 c 0.461,0.256 0.922,0.512 1.434,0.819 3.277,1.946 7.475,4.455 11.418,6.708 2.457,1.485 4.813,2.816 6.758,3.943 l 5.273,3.123 3.277,1.946 4.147,2.458 c 0.307,0.205 0.614,0.359 0.922,0.564 0.358,0.815 0.512,1.788 0.512,2.915 z"
   id="path13" />

		<linearGradient
   id="SVGID_1_"
   gradientUnits="userSpaceOnUse"
   x1="256.00021"
   y1="350.13531"
   x2="256.00021"
   y2="149.3177"
   xlink:href="#SVGID_2_">
			<stop
   offset="0"
   style="stop-color:#E7B056"
   id="stop15" />

			<stop
   offset="0.7685"
   style="stop-color:#F7BC67"
   id="stop17" />

		</linearGradient>

		<path
   style="fill:#6a81ff;fill-opacity:1"
   d="m 425.882,247.706 v 6.604 c -0.41,0.256 -0.922,0.564 -1.434,0.871 l -12.698,7.527 c -2.97,1.689 -6.963,4.044 -10.854,6.298 -3.174,1.894 -6.349,3.737 -8.755,5.171 l -25.242,14.848 -52.122,30.669 -0.614,0.359 -4.762,2.765 -11.674,6.861 -0.563,0.358 -30.208,17.766 c -1.382,0.768 -2.918,1.331 -4.557,1.741 -1.997,0.512 -4.249,0.665 -6.4,0.563 -2.15,0.102 -4.403,-0.051 -6.4,-0.563 -1.638,-0.41 -3.174,-0.973 -4.557,-1.741 l -30.157,-17.715 -0.051,-0.051 -6.605,-3.891 -5.632,-3.327 -4.811,-2.819 -50.381,-29.645 -27.546,-16.179 c -1.894,-1.127 -4.199,-2.457 -6.656,-3.943 -4.506,-2.611 -9.421,-5.53 -12.954,-7.526 L 87.552,255.18 c -0.461,-0.307 -1.024,-0.614 -1.434,-0.871 v -6.604 c 0,-1.127 0.154,-2.048 0.461,-2.867 0,-0.051 0.051,-0.051 0.051,-0.051 0.307,-0.205 0.614,-0.359 0.922,-0.564 l 4.147,-2.458 8.55,-5.069 c 0.87,-0.512 1.843,-1.075 2.867,-1.69 4.301,-2.509 9.677,-5.683 13.978,-8.14 0.102,-0.102 0.256,-0.154 0.358,-0.205 0.871,-0.513 1.638,-1.024 2.407,-1.434 l 19.763,-11.623 41.114,-24.166 22.169,-13.056 42.138,-24.781 c 3.021,-1.689 7.066,-2.458 10.957,-2.253 3.891,-0.204 7.987,0.564 10.957,2.253 l 42.189,24.781 20.992,12.391 43.981,25.856 18.023,10.599 c 0.819,0.512 1.792,1.024 2.765,1.639 0.614,0.307 1.229,0.665 1.844,1.075 3.942,2.304 8.397,4.915 12.134,7.065 1.024,0.615 1.997,1.178 2.867,1.69 l 8.55,5.069 4.147,2.458 c 0.307,0.205 0.614,0.359 0.922,0.564 0.357,0.818 0.511,1.791 0.511,2.918 z"
   id="path20" />

		<polygon
   style="fill:#6fe5df;fill-opacity:1"
   points="326.707,332.492 297.728,329.677 296.243,329.574 257.383,325.786 228.147,322.969 214.989,321.689 206.182,320.819 197.786,320 149.914,315.341 109.21,311.399 113.203,270.234 115.917,242.483 117.402,227.021 117.453,226.663 120.474,195.481 123.085,168.652 160,172.237 202.906,176.384 257.178,181.658 330.138,188.774 376.218,193.229 374.118,214.63 371.763,239.104 369.92,257.843 366.899,289.024 364.391,314.983 362.342,335.974 348.826,334.643 "
   id="polygon22" />

		<linearGradient
   id="SVGID_2_"
   gradientUnits="userSpaceOnUse"
   x1="271.38559"
   y1="168.14059"
   x2="271.38559"
   y2="336.435">
			<stop
   offset="0"
   style="stop-color:#FFFFFF"
   id="stop24" />

			<stop
   offset="0.9704"
   style="stop-color:#F7F7F7"
   id="stop26" />

		</linearGradient>

		<polygon
   style="fill:#ffffff;fill-opacity:1"
   points="200.09,331.571 184.115,333.209 152.064,336.435 149.914,315.341 147.405,290.355 144.231,259.123 142.336,240.23 139.622,213.606 137.626,193.792 180.736,189.44 257.178,181.658 309.146,176.384 351.744,172.083 376.218,169.626 390.707,168.141 392.499,185.908 393.575,196.659 396.544,225.946 396.749,227.943 398.131,241.254 400.896,269.005 405.146,310.835 364.391,314.983 315.341,319.897 314.163,320.051 305.92,320.87 284.058,323.072 257.383,325.786 214.887,330.086 214.784,330.086 "
   id="polygon29"
   transform="translate(-0.002,0.002)" />

		<g
   id="g37">
			<path
   style="fill:#6ab0ff;fill-opacity:1"
   d="m 263.117,304.332 c 0,0 -1.126,0.666 -2.97,1.639 -1.126,0.614 -2.56,1.331 -4.147,2.252 -0.768,0.41 -1.638,0.871 -2.56,1.331 l -3.379,1.793 -0.461,0.204 -1.075,0.614 -7.424,3.891 -10.24,5.427 c -0.922,0.461 -1.843,0.973 -2.714,1.484 -1.587,0.819 -3.123,1.689 -4.505,2.356 -2.458,1.331 -4.352,2.355 -5.069,2.714 -0.563,0.307 -1.946,1.024 -3.738,1.996 l -0.051,0.051 c -2.355,1.229 -5.376,2.867 -8.397,4.454 l -36.864,19.558 -15.974,8.5 -49.511,26.265 c -1.996,1.024 -4.147,2.202 -6.144,3.226 H 91.75 c -0.563,0 -1.127,0 -1.587,-0.051 -1.28,-0.102 -2.201,-0.307 -2.918,-0.615 -0.358,-0.205 -0.666,-0.358 -0.87,-0.563 -0.103,-0.153 -0.154,-0.204 -0.205,-0.358 0,-0.154 -0.051,-0.307 0,-0.513 -0.051,-0.256 -0.051,-0.511 -0.051,-0.819 V 219.699 c 0,-1.024 0.154,-1.894 0.461,-2.611 0,-0.051 0.051,-0.051 0.051,-0.051 0.666,-1.536 1.894,-2.458 3.584,-2.611 0.461,-0.154 0.922,-0.154 1.485,-0.102 1.229,0.051 2.662,0.409 4.198,1.28 l 18.79,9.933 2.048,1.126 0.358,0.205 0.307,0.153 8.038,4.249 c 1.024,0.512 2.151,1.177 3.379,1.792 4.198,2.201 9.37,4.915 13.517,7.167 0.921,0.461 1.792,0.973 2.611,1.383 l 52.071,27.648 47.155,25.037 2.611,1.383 c 0.103,0.051 0.205,0.051 0.256,0.103 0.205,0.051 0.358,0.154 0.563,0.256 0.461,0.256 0.922,0.46 1.331,0.716 0.051,0.051 0.153,0.051 0.205,0.103 0.614,0.307 1.178,0.614 1.741,0.921 2.253,1.178 4.096,2.151 5.12,2.765 0.615,0.256 0.922,0.461 1.024,0.513 0.205,0.153 1.638,0.87 3.123,1.741 0.051,0 0.051,0.051 0.103,0.051 0.256,0.103 0.512,0.205 0.717,0.359 1.229,0.613 2.151,1.073 2.151,1.124 z"
   id="path31" />

			<g
   id="g35">
				<path
   style="fill:#6aa6ff;fill-opacity:1"
   d="m 425.793,218.722 c 0.049,0.521 0.089,1.867 0.089,2.99 v 165.33 c 0,1.124 0,2.178 0,2.343 0,0.165 -0.059,0.65 -0.059,0.739 0,0.089 0,0.162 0,0.347 0,0 0,0.01 0,0.023 0,0.013 -0.52,0.376 -1.155,0.808 -0.635,0.432 -5.329,0.785 -6.453,0.785 h -2.069 c -1.124,0 -2.857,-0.427 -3.853,-0.948 l -2.537,-1.338 c -0.995,-0.522 -2.622,-1.379 -3.614,-1.906 L 307.408,335.51 c -0.993,-0.527 -2.617,-1.388 -3.61,-1.915 l -8.589,-4.593 c -0.99,-0.531 -2.612,-1.397 -3.604,-1.925 l -8.647,-4.594 c -0.991,-0.53 -2.614,-1.393 -3.607,-1.919 l -15.153,-8.024 c -0.993,-0.526 -2.618,-1.386 -3.612,-1.911 l -0.234,-0.124 c -0.993,-0.525 -2.605,-1.371 -3.582,-1.879 0,0 0,0 -0.77,-0.416 -4.085,-2.218 -7.104,-3.836 -7.104,-3.882 0,-0.046 1.303,-0.693 2.842,-1.525 1.538,-0.832 1.538,-0.832 1.538,-0.832 0.944,-0.508 1.81,-0.976 1.924,-1.04 0.114,-0.064 1.606,-0.833 2.592,-1.372 0,0 2.942,-1.608 6.613,-3.503 0.178,-0.092 0.178,-0.092 0.178,-0.092 0.195,-0.102 0.395,-0.205 0.443,-0.231 0.049,-0.025 0.633,-0.321 1.154,-0.601 0.521,-0.28 1.759,-0.939 2.752,-1.466 l 96.307,-51.092 c 0.993,-0.527 2.616,-1.389 3.608,-1.918 l 15.924,-8.436 c 0.993,-0.526 2.618,-1.386 3.611,-1.913 l 25.927,-13.752 c 0.993,-0.526 2.471,-1.238 3.285,-1.581 0.814,-0.343 3.627,-0.501 4.732,-0.295 0,0 1.005,0.095 1.721,0.895 0.715,0.807 1.697,2.627 1.746,3.148 z"
   id="path33" />

			</g>

		</g>

		<path
   style="fill:#2b4cbf;fill-opacity:1"
   d="m 425.882,368.661 v 20.494 c 0,0.316 0,0.587 -0.061,0.857 0.061,0.181 0,0.316 0,0.497 0,0 0,0 0,0.045 -0.425,0.948 -2.367,1.534 -5.703,1.534 H 109.217 l 61.209,-40.761 0.061,-0.045 76.618,-51.008 7.462,-4.921 2.001,-1.354 6.613,2.889 z"
   id="path39" />

		<path
   style="fill:#6a93ff;fill-opacity:1"
   d="m 425.882,388.385 v 0.768 c 0,0.316 0,0.587 -0.059,0.858 0.059,0.181 0,0.317 0,0.497 0,0 0,0 0,0.045 -0.415,0.949 -2.309,1.535 -5.564,1.535 H 91.741 c -3.255,0 -5.15,-0.587 -5.564,-1.535 0,-0.045 0,-0.045 0,-0.045 0,-0.181 -0.059,-0.317 0,-0.497 -0.059,-0.271 -0.059,-0.542 -0.059,-0.858 v -0.768 c 0.533,-0.542 1.302,-1.084 2.309,-1.626 l 157.984,-88.456 c 0.059,0 0.059,-0.045 0.118,-0.09 0.178,-0.09 0.356,-0.181 0.533,-0.271 3.255,-1.762 6.57,-2.982 8.938,-3.433 0.829,0.18 1.716,0.406 2.723,0.768 1.894,0.587 4.084,1.536 6.215,2.666 0.236,0.135 0.414,0.226 0.651,0.361 l 157.984,88.456 c 1.006,0.586 1.775,1.128 2.309,1.625 z"
   id="path41" />

	<g
   id="g4795"
   transform="matrix(-0.20871284,-0.17401866,0.17401866,-0.20871284,294.0235,280.52353)"
   inkscape:transform-center-x="3.6208745"
   inkscape:transform-center-y="4.1381423">
	<path
   style="fill:none"
   d="m 117.936,333.126 c 12.463,-2.839 21.808,-13.942 21.808,-27.226 V 87.197 c 0,-7.316 -1.478,-14.29 -4.158,-20.641 0.763,1.003 1.355,2.128 2.047,3.183 C 133.311,57.155 124.366,46.757 112.89,40.38 v 293.256 c 1.721,-0.025 3.41,-0.188 5.046,-0.51 z"
   id="path4767" />

	<path
   style="fill:none"
   d="M 50.905,305.695 V 164.424 c 0,-9.278 7.522,-16.802 16.801,-16.802 9.279,0 16.801,7.523 16.801,16.802 v 141.271 c 0,15.426 12.572,27.977 28.024,27.977 0.123,0 0.236,-0.034 0.358,-0.036 V 40.38 c -7.66,-4.255 -16.416,-6.767 -25.793,-6.767 -29.476,0 -53.457,23.947 -53.457,53.383 v 9.532 211.896 90.824 c 0,37.964 26.913,69.745 62.678,77.377 0.603,0.122 1.208,0.235 1.815,0.342 1.833,0.348 3.687,0.634 5.562,0.85 2.754,0.292 5.527,0.521 8.357,0.521 0.283,0 0.556,-0.039 0.839,-0.041 V 367.256 c -0.121,0 -0.238,0.017 -0.358,0.017 -33.982,0 -61.627,-27.623 -61.627,-61.578 z"
   id="path4769" />

	<g
   id="g4793">
		<g
   id="g4783">
			<path
   style="fill:#eedaac"
   d="M 224.49649,309.80461 225.778,399.234 c 0.89102,62.17962 -50.627,112.734 -112.889,112.734 -20.728,0 -40.224,-5.625 -56.945,-15.411 -14.949,-8.784 -27.741,-20.882 -37.296,-35.291 -0.077,-0.154 -0.154,-0.386 -0.308,-0.54 -1.079,-1.541 -2.081,-3.159 -3.005,-4.856 -0.308,-0.463 -0.539,-0.924 -0.847,-1.464 C 12.022,450.09 9.864,445.622 8.015,440.921 7.707,440.229 7.399,439.457 7.167,438.686 5.395,433.987 3.931,429.208 2.852,424.2 2.544,422.891 2.235,421.579 2.004,420.27 1.619,418.498 1.387,416.726 1.156,414.952 0.925,413.565 0.694,412.179 0.617,410.715 0.386,408.866 0.231,407.016 0.155,405.09 0.077,403.087 0,401.161 0,399.234 L 0,86.998 C 0,39.069 39.068,0 87.075,0 c 2.004,0 4.084,0.077 6.088,0.231 2.389,0.154 4.778,0.386 7.166,0.771 1.772,0.307 3.544,0.615 5.24,1.001 2.466,0.54 4.932,1.155 7.321,1.926 0.385,0.154 0.77,0.231 1.156,0.386 1.926,0.615 3.93,1.386 5.856,2.158 0.077,0 0.154,0.075 0.231,0.075 0.462,0.233 1.001,0.463 1.464,0.617 0.077,0.077 0.154,0.154 0.231,0.154 1.002,0.386 2.004,0.848 2.928,1.309 1.079,0.54 2.157,1.08 3.236,1.62 0.231,0.152 0.462,0.231 0.694,0.386 1.849,1.001 3.621,2.081 5.394,3.159 0.231,0.231 0.539,0.386 0.77,0.54 0.077,0.075 0.154,0.075 0.231,0.154 0.309,0.23 0.694,0.461 1.002,0.692 0.077,0.077 0.231,0.154 0.309,0.231 0.154,0 0.231,0.077 0.308,0.231 0.848,0.538 1.696,1.155 2.466,1.695 1.079,0.848 2.235,1.695 3.313,2.543 0.154,0.152 0.308,0.307 0.462,0.461 0.077,0.079 0.077,0.079 0.154,0.079 0.693,0.615 1.387,1.232 2.081,1.847 1.156,1.003 2.234,2.006 3.313,3.083 0.231,0.231 0.462,0.54 0.77,0.848 0.77,0.769 1.541,1.539 2.234,2.31 0.539,0.54 1.002,1.155 1.541,1.695 0.385,0.54 0.771,1.003 1.233,1.466 0.231,0.309 0.539,0.692 0.77,1.001 0.617,0.771 1.233,1.541 1.772,2.312 0.386,0.461 0.694,0.924 1.002,1.387 0.231,0.386 0.54,0.771 0.848,1.155 0.077,0.154 0.231,0.308 0.308,0.463 0.077,0.154 0.154,0.231 0.308,0.386 0,0.077 0.077,0.231 0.154,0.308 0.077,0.077 0.154,0.231 0.231,0.309 0.386,0.54 0.771,1.155 1.079,1.772 0.309,0.386 0.539,0.769 0.771,1.155 0.616,1.003 1.156,2.081 1.772,3.083 0.308,0.615 0.617,1.155 0.925,1.772 0.462,0.847 0.925,1.695 1.31,2.543 v 0.075 l 0.077,0 c 0,0.077 0.077,0.077 0.077,0.154 2.004,4.161 3.622,8.554 4.932,13.022 0.462,1.62 0.848,3.161 1.233,4.701 0.385,1.618 0.694,3.238 1.002,4.856 0.308,1.618 0.539,3.236 0.694,4.854 0.231,1.618 0.385,3.313 0.462,4.933 0.077,1.693 0.154,3.39 0.154,5.085 l 0,221.463 c 0,1.001 -0.077,1.926 -0.231,2.852 -0.385,3.928 -1.079,7.781 -2.158,11.404 -2.62,9.169 -7.397,17.492 -13.639,24.427 -2.081,2.235 -4.315,4.316 -6.627,6.088 -1.849,1.695 -3.93,3.159 -6.01,4.468 -1.618,1.003 -3.236,1.927 -4.855,2.775 -3.468,1.772 -7.089,3.236 -10.865,4.316 -1.773,0.538 -3.622,1.001 -5.471,1.309 -1.926,0.386 -3.853,0.692 -5.856,0.847 -1.849,0.233 -3.699,0.309 -5.548,0.309 h -0.386 c -33.982,0 -61.569,-27.585 -61.569,-61.569 V 164.441 c 0,-9.324 7.475,-16.8 16.799,-16.8 9.247,0 16.798,7.476 16.798,16.8 l 0,141.245 c 0,15.411 12.56,27.973 27.972,27.973 l 0.386,0 c 1.695,-0.077 3.39,-0.231 5.008,-0.54 h 0.231 c 0.77,-0.154 1.464,-0.309 2.157,-0.54 11.713,-3.39 20.266,-14.177 20.266,-26.893 V 86.998 c 0,-6.011 -1.002,-11.867 -2.928,-17.261 0,-0.231 -0.077,-0.386 -0.154,-0.54 0,-0.077 0,-0.077 -0.077,-0.077 -0.386,-1.309 -0.925,-2.619 -1.541,-3.853 -0.077,-0.154 -0.154,-0.309 -0.231,-0.463 -0.539,-1.386 -1.233,-2.773 -2.08,-4.082 -4.777,-8.631 -12.021,-15.72 -20.651,-20.498 -7.706,-4.239 -16.49,-6.626 -25.814,-6.626 -29.436,0 -53.401,23.964 -53.401,53.4 l 0,312.236 c 0,40.995 31.208,74.668 71.124,78.752 1.156,0.077 2.389,0.154 3.545,0.309 1.233,0.077 2.466,0.077 3.699,0.077 l 0.848,0 c 1.078,0 2.157,-0.077 3.236,-0.077 42.227,-1.697 75.978,-36.448 75.978,-79.061 l -0.16165,-56.24059 z"
   id="path4771"
   sodipodi:nodetypes="cssccccccccccccsssccccccccccccccccccccccccccccccccccscccccccccccsccsscccccccccssssssssccccsscccscccsssccsscscc" />

			<path
   style="opacity:0.07;fill:#040000"
   d="M 139.743,305.9 V 87.197 c 0,-7.317 -1.479,-14.29 -4.158,-20.64 6.821,8.964 10.879,20.136 10.879,32.242 v 218.703 c 0,15.424 -12.567,27.974 -28.025,27.974 -12.752,0 -23.547,-8.552 -26.924,-20.204 5.107,5.301 12.273,8.602 20.204,8.602 15.457,0 28.024,-12.551 28.024,-27.974 z"
   id="path4773" />

			<path
   style="fill:#fbe6b7"
   d="m 164.209,46.774 c 0.462,0.847 0.925,1.695 1.31,2.543 -0.077,-0.079 -0.154,-0.079 -0.154,-0.154 C 153.113,31.517 134.542,18.57 112.889,13.793 106.724,12.327 100.405,11.635 93.856,11.635 45.85,11.635 6.781,50.626 6.781,98.633 V 410.87 c 0,16.566 3.545,32.364 10.095,46.543 0.462,1.155 1.002,2.235 1.464,3.313 -1.002,-1.541 -2.004,-3.083 -2.851,-4.701 0,0 -0.154,-0.077 -0.154,-0.154 -0.308,-0.463 -0.539,-0.924 -0.847,-1.464 C 12.022,450.091 9.864,445.623 8.015,440.922 7.707,440.23 7.399,439.458 7.167,438.687 5.395,433.988 3.931,429.209 2.852,424.201 2.544,422.892 2.235,421.58 2.004,420.271 1.619,418.499 1.387,416.727 1.156,414.953 0.925,413.566 0.694,412.18 0.617,410.716 0.386,408.867 0.231,407.017 0.155,405.091 0.077,403.087 0,401.161 0,399.234 V 86.998 C 0,39.069 39.068,0 87.075,0 c 2.004,0 4.084,0.077 6.088,0.231 2.389,0.154 4.778,0.386 7.166,0.771 1.772,0.307 3.544,0.615 5.24,1.001 2.466,0.54 4.932,1.155 7.321,1.926 0.385,0.154 0.77,0.231 1.156,0.386 1.926,0.615 3.93,1.386 5.856,2.158 0.077,0 0.154,0.075 0.231,0.075 0.462,0.233 1.001,0.463 1.464,0.617 0.077,0.077 0.154,0.154 0.231,0.154 1.002,0.386 2.004,0.848 2.928,1.309 1.079,0.54 2.157,1.08 3.236,1.62 0.231,0.152 0.462,0.231 0.694,0.386 1.849,1.001 3.621,2.081 5.394,3.159 0.231,0.231 0.539,0.386 0.77,0.54 0.077,0.075 0.154,0.075 0.231,0.154 0.309,0.23 0.694,0.461 1.002,0.692 0.077,0.077 0.231,0.154 0.309,0.231 l 0.077,0.077 c 0.077,0.077 0.154,0.077 0.231,0.154 0.848,0.538 1.696,1.155 2.466,1.695 0.77,0.694 1.541,1.232 2.312,1.849 0.385,0.231 0.694,0.463 1.002,0.694 0.154,0.152 0.308,0.307 0.462,0.461 0.077,0.079 0.077,0.079 0.154,0.079 0.693,0.615 1.387,1.232 2.081,1.847 1.156,1.003 2.234,2.006 3.313,3.083 0.231,0.231 0.462,0.54 0.77,0.848 0.77,0.769 1.464,1.539 2.158,2.31 h 0.077 c 0.539,0.54 1.002,1.155 1.541,1.695 0.154,0.231 0.385,0.463 0.462,0.694 0.309,0.231 0.54,0.54 0.771,0.771 0.231,0.309 0.539,0.692 0.77,1.001 0.617,0.771 1.233,1.541 1.772,2.312 0.386,0.461 0.694,0.924 1.002,1.387 0.231,0.386 0.54,0.771 0.848,1.155 0.077,0.154 0.231,0.308 0.308,0.463 0.077,0.154 0.154,0.231 0.308,0.386 0,0.077 0.077,0.231 0.154,0.308 0.077,0.077 0.154,0.231 0.231,0.309 0.386,0.54 0.771,1.155 1.079,1.772 0.309,0.386 0.539,0.769 0.771,1.155 0.616,1.003 1.156,2.081 1.772,3.083 0.308,0.619 0.617,1.159 0.925,1.776 z"
   id="path4775" />

			<path
   style="fill:#fbe6b7"
   d="m 165.519,49.393 v -0.075 c 0.077,0 0.077,0.075 0.077,0.075 z"
   id="path4777" />

			<g
   style="opacity:0.07"
   id="g4781">
				<path
   style="fill:#040000"
   d="m 224.49649,309.80461 v 0 L 191.303,399.188 l 6.72,11.61 c 21.86188,37.7703 -35.551,79.142 -79.252,79.142 -31.687,0 -59.099,-18.666 -71.758,-45.573 14.332,20.523 38.139,33.972 65.038,33.972 43.7,0 79.252,-35.51 79.252,-79.151 l 0.63835,-56.19459 z"
   id="path4779"
   sodipodi:nodetypes="cccsscsscc" />

			</g>

		</g>

		<g
   style="opacity:0.07"
   id="g4791">
			<path
   style="fill:#040000"
   d="m 224.905,96.529 c 844.8044,2.304365 422.4022,1.152183 0,0 z"
   id="path4785"
   sodipodi:nodetypes="cc" />

			<path
   style="fill:#040000"
   d="m 165.519,49.393 v -0.075 c 0.077,0 0.077,0.075 0.077,0.075 z"
   id="path4787" />

			<path
   style="fill:#040000"
   d="m 174.149,86.998 v 221.463 c 0,1.001 -0.077,1.926 -0.231,2.852 -0.385,3.928 -1.079,7.781 -2.158,11.404 -2.62,9.169 -7.397,17.492 -13.639,24.427 -2.004,2.158 -4.239,4.237 -6.627,6.088 -1.849,1.695 -3.93,3.159 -6.01,4.468 -1.618,1.003 -3.236,1.927 -4.855,2.775 -3.468,1.772 -7.089,3.236 -10.865,4.316 -1.773,0.538 -3.622,1.001 -5.471,1.309 -1.926,0.386 -3.853,0.692 -5.856,0.847 -1.849,0.233 -3.699,0.309 -5.548,0.309 V 333.66 c 1.695,-0.077 3.39,-0.231 5.008,-0.54 3.93,-0.924 7.475,-2.621 10.634,-4.931 0.617,-0.463 1.233,-0.926 1.772,-1.464 0.617,-0.463 1.156,-1.003 1.695,-1.62 0.539,-0.54 1.002,-1.078 1.541,-1.695 1.002,-1.155 1.849,-2.464 2.62,-3.853 0.231,-0.386 0.462,-0.771 0.694,-1.232 0.462,-0.926 0.925,-1.926 1.233,-3.006 0.309,-0.615 0.462,-1.309 0.694,-2.079 0,-0.079 0.077,-0.154 0.154,-0.309 0.154,-0.694 0.308,-1.388 0.386,-2.158 0.154,-0.694 0.231,-1.311 0.308,-2.004 0.077,-0.926 0.154,-1.926 0.154,-2.852 V 87.229 c 0,-7.322 -1.541,-14.334 -4.161,-20.653 0.694,1.003 1.31,2.081 2.004,3.161 -0.077,-0.231 -0.154,-0.386 -0.231,-0.617 -0.462,-1.309 -1.002,-2.619 -1.541,-3.853 -0.077,-0.154 -0.154,-0.309 -0.231,-0.463 -0.616,-1.386 -1.31,-2.696 -2.08,-4.082 -4.855,-8.477 -12.021,-15.566 -20.651,-20.344 V 3.93 c 0.385,0.154 0.77,0.231 1.156,0.386 1.926,0.615 3.93,1.386 5.856,2.158 0.077,0 0.154,0.075 0.231,0.075 0.462,0.233 1.001,0.463 1.464,0.617 0.077,0.077 0.154,0.154 0.231,0.154 1.002,0.386 2.004,0.848 2.928,1.309 1.079,0.54 2.157,1.08 3.236,1.62 0.231,0.152 0.462,0.231 0.694,0.386 1.849,1.001 3.621,2.081 5.394,3.159 0.231,0.231 0.539,0.386 0.77,0.54 0.077,0.075 0.154,0.075 0.231,0.154 0.309,0.23 0.694,0.461 1.002,0.692 0.077,0.077 0.231,0.154 0.309,0.231 l 0.077,0.077 c 0.077,0.077 0.154,0.077 0.231,0.154 0.848,0.538 1.696,1.155 2.466,1.695 0.77,0.694 1.541,1.232 2.312,1.849 0.462,0.386 1.002,0.771 1.464,1.155 0.077,0.079 0.077,0.079 0.154,0.079 0.693,0.615 1.387,1.232 2.081,1.847 1.156,1.003 2.234,2.006 3.313,3.083 0.231,0.231 0.462,0.54 0.77,0.848 0.77,0.769 1.464,1.539 2.158,2.31 0.77,0.771 1.387,1.543 2.08,2.389 0.54,0.54 0.925,1.08 1.387,1.695 1.002,1.232 1.926,2.466 2.928,3.776 0.231,0.386 0.54,0.771 0.848,1.155 0.077,0.154 0.231,0.308 0.308,0.463 0.077,0.154 0.154,0.231 0.308,0.386 0,0.077 0.077,0.231 0.154,0.308 0.077,0.077 0.154,0.231 0.231,0.309 0.386,0.54 0.771,1.155 1.079,1.772 0.309,0.386 0.539,0.769 0.771,1.155 0.616,1.003 1.156,2.081 1.772,3.083 0.308,0.615 0.617,1.155 0.925,1.772 0.462,0.847 0.925,1.695 1.31,2.543 -0.077,-0.079 -0.154,-0.079 -0.154,-0.154 0,0.075 0.077,0.154 0.154,0.229 2.004,4.239 3.699,8.631 5.086,13.176 0.462,1.62 0.848,3.161 1.233,4.701 0.385,1.618 0.694,3.238 1.002,4.856 0.308,1.618 0.539,3.236 0.694,4.854 0.231,1.618 0.385,3.313 0.462,4.933 0.076,1.697 0.152,3.394 0.152,5.089 z"
   id="path4789" />

		</g>

	</g>

</g>
</g>

</g>
  </g>
</svg>
