<?xml version="1.0" encoding="UTF-8" standalone="no"?>
<!-- Created with Inkscape (http://www.inkscape.org/) -->

<svg
   width="100mm"
   height="100mm"
   viewBox="0 0 100 100"
   version="1.1"
   id="svg5"
   inkscape:version="1.1 (c68e22c387, 2021-05-23)"
   sodipodi:docname="bill.svg"
   xmlns:inkscape="http://www.inkscape.org/namespaces/inkscape"
   xmlns:sodipodi="http://sodipodi.sourceforge.net/DTD/sodipodi-0.dtd"
   xmlns="http://www.w3.org/2000/svg"
   xmlns:svg="http://www.w3.org/2000/svg">
  <sodipodi:namedview
     id="namedview7"
     pagecolor="#ffffff"
     bordercolor="#666666"
     borderopacity="1.0"
     inkscape:pageshadow="2"
     inkscape:pageopacity="0.0"
     inkscape:pagecheckerboard="0"
     inkscape:document-units="mm"
     showgrid="false"
     width="100mm"
     inkscape:zoom="0.45254834"
     inkscape:cx="335.87572"
     inkscape:cy="174.56699"
     inkscape:window-width="1191"
     inkscape:window-height="562"
     inkscape:window-x="629"
     inkscape:window-y="285"
     inkscape:window-maximized="0"
     inkscape:current-layer="layer1" />
  <defs
     id="defs2" />
  <g
     inkscape:label="レイヤー 1"
     inkscape:groupmode="layer"
     id="layer1">
    <g
       style="opacity:1"
       id="g1964"
       transform="matrix(0.15154113,0,0,0.15154113,11.046357,9.6730704)">
      <g
         id="g1947">
	
	
	
	
	
	
	
	
</g>
    </g>
    <g
       style="opacity:1"
       id="g3294"
       transform="matrix(0.13701692,0,0,0.13701695,14.911433,14.647392)">
      <g
         id="g3284">
	
</g>
    </g>
    <path
       id="path3835"
       style="fill:#000000;stroke-width:1.88976"
       d="M 188.97656 0 A 188.97638 188.97638 0 0 0 0 188.97656 A 188.97638 188.97638 0 0 0 188.97656 377.95312 A 188.97638 188.97638 0 0 0 377.95312 188.97656 A 188.97638 188.97638 0 0 0 188.97656 0 z M 130.21875 91.859375 L 248.04688 91.859375 C 250.82822 91.859375 253.08008 94.113268 253.08008 96.892578 L 253.08008 129.20898 L 253.08008 145.05469 L 253.08008 160.04102 L 253.08008 175.88477 L 253.08008 190.89258 L 253.08008 206.73828 L 253.08008 221.74805 L 253.08008 237.5918 L 253.08008 258.23633 L 253.08008 262.76367 L 253.08008 278.60938 L 204.23438 278.60938 L 204.23438 262.76367 L 204.23438 258.23633 L 204.23438 244.26953 L 174.03516 244.26953 L 174.03516 258.23633 L 174.03516 262.76367 L 174.03516 278.60938 L 125.18555 278.60938 L 125.18555 278.52539 L 125.18555 278.47852 L 125.18555 262.76367 L 125.18555 258.23633 L 125.18555 237.5918 L 125.18555 221.74805 L 125.18555 206.73828 L 125.18555 190.89258 L 125.18555 175.88477 L 125.18555 160.04102 L 125.18555 145.05469 L 125.18555 129.20898 L 125.18555 96.892578 C 125.18555 94.113268 127.43944 91.859375 130.21875 91.859375 z M 148.44727 114.49609 L 148.44727 129.20898 L 166.86133 129.20898 L 166.86133 114.49609 L 166.83008 114.49609 L 148.44727 114.49609 z M 179.13672 114.49609 L 179.13672 129.20898 L 197.54883 129.20898 L 197.54883 114.49609 L 197.51953 114.49609 L 179.13672 114.49609 z M 209.82422 114.49609 L 209.82422 129.20898 L 228.23633 129.20898 L 228.23633 114.49609 L 228.20703 114.49609 L 209.82422 114.49609 z M 63.232422 119.83984 L 110.30859 119.83984 L 110.30859 139.10156 L 110.22656 139.10156 L 110.22656 139.10352 L 110.00195 139.10156 L 73.591797 139.10156 L 73.591797 151.59766 L 110.30859 151.59766 L 110.30859 165.06641 L 73.591797 165.06641 L 73.591797 177.80859 L 110.30859 177.80859 L 110.30859 191.2793 L 110.22656 191.2793 L 110.00195 191.2793 L 73.591797 191.2793 L 73.591797 204.04492 L 110.30859 204.04492 L 110.30859 217.51367 L 73.591797 217.51367 L 73.591797 230.25781 L 110.30859 230.25781 L 110.30859 278.60938 L 58.197266 278.60938 L 58.197266 278.52539 L 58.197266 278.05859 L 58.197266 124.87109 C 58.197266 122.08974 60.451066 119.83984 63.232422 119.83984 z M 267.96094 119.83984 L 315.03711 119.83984 C 317.81847 119.83984 320.06836 122.08974 320.06836 124.87109 L 320.06836 278.60938 L 267.96094 278.60938 L 267.96094 278.52539 L 267.96094 278.38086 L 267.96094 230.25781 L 304.67773 230.25781 L 304.67773 217.51367 L 267.96094 217.51367 L 267.96094 217.43164 L 267.96094 217.39258 L 267.96094 204.04688 L 304.67773 204.04688 L 304.67773 191.2793 L 304.53516 191.2793 L 267.96094 191.2793 L 267.96094 191.19727 L 267.96094 191.15625 L 267.96094 177.80859 L 304.67773 177.80859 L 304.67773 165.06641 L 267.96094 165.06641 L 267.96094 164.98438 L 267.96094 164.94141 L 267.96094 151.59766 L 304.67773 151.59766 L 304.67773 139.10156 L 304.53516 139.10156 L 267.96094 139.10156 L 267.96094 139.01953 L 267.96094 138.96094 L 267.96094 119.83984 z M 148.44727 145.05469 L 148.44727 160.04102 L 166.86133 160.04102 L 166.86133 145.05469 L 148.44727 145.05469 z M 179.13672 145.05469 L 179.13672 160.04102 L 197.54883 160.04102 L 197.54883 145.05469 L 179.13672 145.05469 z M 209.82422 145.05469 L 209.82422 160.04102 L 228.23633 160.04102 L 228.23633 145.05469 L 209.82422 145.05469 z M 148.44727 175.88477 L 148.44727 190.89258 L 166.86133 190.89258 L 166.86133 175.88477 L 148.44727 175.88477 z M 179.13672 175.88477 L 179.13672 190.89258 L 197.54883 190.89258 L 197.54883 175.88477 L 179.13672 175.88477 z M 209.82422 175.88477 L 209.82422 190.89258 L 228.23633 190.89258 L 228.23633 175.88477 L 209.82422 175.88477 z M 148.44727 206.73828 L 148.44727 221.74609 L 166.86133 221.74609 L 166.86133 206.73828 L 148.44727 206.73828 z M 179.13672 206.73828 L 179.13672 221.74609 L 197.54883 221.74609 L 197.54883 206.73828 L 179.13672 206.73828 z M 209.82422 206.73828 L 209.82422 221.74609 L 228.23633 221.74609 L 228.23633 206.73828 L 209.82422 206.73828 z "
       transform="scale(0.26458333)" />
    <g
       style="opacity:1"
       id="g3937"
       transform="matrix(0.13532556,0,0,0.13532556,15.398233,14.366665)">
      <g
         id="g3925">
	
	
	
</g>
    </g>
  </g>
  <style
     type="text/css"
     id="style1929">
	.st0{fill:#374149;}
</style>
  <style
     type="text/css"
     id="style3280">
	.st0{fill:#374149;}
</style>
  <style
     type="text/css"
     id="style3917">
	.st0{fill:#374149;}
</style>
</svg>
