<?xml version="1.0" encoding="UTF-8" standalone="no"?>
<!-- Created with Inkscape (http://www.inkscape.org/) -->

<svg
   width="100mm"
   height="100mm"
   viewBox="0 0 100 100"
   version="1.1"
   id="svg5"
   inkscape:version="1.1 (c68e22c387, 2021-05-23)"
   sodipodi:docname="business.svg"
   xmlns:inkscape="http://www.inkscape.org/namespaces/inkscape"
   xmlns:sodipodi="http://sodipodi.sourceforge.net/DTD/sodipodi-0.dtd"
   xmlns="http://www.w3.org/2000/svg"
   xmlns:svg="http://www.w3.org/2000/svg">
  <sodipodi:namedview
     id="namedview7"
     pagecolor="#ffffff"
     bordercolor="#666666"
     borderopacity="1.0"
     inkscape:pageshadow="2"
     inkscape:pageopacity="0.0"
     inkscape:pagecheckerboard="0"
     inkscape:document-units="mm"
     showgrid="false"
     width="100mm"
     inkscape:zoom="0.45254834"
     inkscape:cx="335.87572"
     inkscape:cy="174.56699"
     inkscape:window-width="1191"
     inkscape:window-height="562"
     inkscape:window-x="629"
     inkscape:window-y="285"
     inkscape:window-maximized="0"
     inkscape:current-layer="layer1" />
  <defs
     id="defs2" />
  <g
     inkscape:label="レイヤー 1"
     inkscape:groupmode="layer"
     id="layer1">
    <g
       style="opacity:1"
       id="g1964"
       transform="matrix(0.15154113,0,0,0.15154113,11.046357,9.6730704)">
      <g
         id="g1947">
	
	
	
	
	
	
	
	
</g>
    </g>
    <g
       style="opacity:1"
       id="g3294"
       transform="matrix(0.13701692,0,0,0.13701695,14.911433,14.647392)">
      <g
         id="g3284">
	
</g>
    </g>
    <g
       style="opacity:1"
       id="g3937"
       transform="matrix(0.13532556,0,0,0.13532556,15.398233,14.366665)">
      <g
         id="g3925">
	
	
	
</g>
    </g>
    <path
       id="path4385"
       style="fill:#000000;stroke-width:0.499997"
       d="M 188.97656 0 A 188.97638 188.97638 0 0 0 0 188.97656 A 188.97638 188.97638 0 0 0 188.97656 377.95312 A 188.97638 188.97638 0 0 0 377.95312 188.97656 A 188.97638 188.97638 0 0 0 188.97656 0 z M 96.929688 90.623047 L 283.14062 90.623047 C 289.23485 90.623047 294.2207 95.607432 294.2207 101.70117 L 294.2207 221.69922 C 294.61602 222.15529 294.91173 222.63196 294.99609 223.13672 L 313.11133 256.42969 C 314.68972 259.60094 310.65137 262.25391 304.10156 262.25391 L 75.96875 262.25391 C 69.419426 262.25391 65.383025 259.60094 66.960938 256.42969 L 85.074219 223.13672 C 85.159068 222.63196 85.452335 222.15333 85.847656 221.69727 L 85.847656 101.70117 C 85.847656 95.607432 90.835948 90.623047 96.929688 90.623047 z M 105.54688 110.32031 L 105.54688 218.49414 L 274.52148 218.49414 L 274.52148 110.32031 L 105.54688 110.32031 z M 165.39062 234.17578 L 158.81445 246.57227 L 221.25391 246.57227 L 214.67969 234.17578 L 165.39062 234.17578 z M 66.617188 270.04297 L 313.45117 270.04297 L 313.45117 276.42969 C 313.45117 279.70073 310.80083 282.35352 307.5293 282.35352 L 72.539062 282.35352 C 69.268017 282.35352 66.617188 279.70073 66.617188 276.42969 L 66.617188 270.04297 z "
       transform="scale(0.26458333)" />
    <g
       style="opacity:1"
       id="g4484"
       transform="matrix(0.12755553,0,0,0.12755553,17.625861,16.687368)">
      <g
         id="g4473">
	
	
</g>
    </g>
  </g>
  <style
     type="text/css"
     id="style1929">
	.st0{fill:#374149;}
</style>
  <style
     type="text/css"
     id="style3280">
	.st0{fill:#374149;}
</style>
  <style
     type="text/css"
     id="style3917">
	.st0{fill:#374149;}
</style>
  <style
     type="text/css"
     id="style4467">
	.st0{fill:#374149;}
</style>
</svg>
