<?xml version="1.0" encoding="UTF-8" standalone="no"?>
<!-- Created with Inkscape (http://www.inkscape.org/) -->

<svg
   width="100mm"
   height="100mm"
   viewBox="0 0 100 100"
   version="1.1"
   id="svg5"
   inkscape:version="1.1 (c68e22c387, 2021-05-23)"
   sodipodi:docname="company.svg"
   xmlns:inkscape="http://www.inkscape.org/namespaces/inkscape"
   xmlns:sodipodi="http://sodipodi.sourceforge.net/DTD/sodipodi-0.dtd"
   xmlns="http://www.w3.org/2000/svg"
   xmlns:svg="http://www.w3.org/2000/svg">
  <sodipodi:namedview
     id="namedview7"
     pagecolor="#ffffff"
     bordercolor="#666666"
     borderopacity="1.0"
     inkscape:pageshadow="2"
     inkscape:pageopacity="0.0"
     inkscape:pagecheckerboard="0"
     inkscape:document-units="mm"
     showgrid="false"
     width="100mm"
     inkscape:zoom="0.45254834"
     inkscape:cx="408.79611"
     inkscape:cy="276.21359"
     inkscape:window-width="1191"
     inkscape:window-height="562"
     inkscape:window-x="133"
     inkscape:window-y="344"
     inkscape:window-maximized="0"
     inkscape:current-layer="layer1" />
  <defs
     id="defs2" />
  <g
     inkscape:label="レイヤー 1"
     inkscape:groupmode="layer"
     id="layer1">
    <g
       style="opacity:1"
       id="g1964"
       transform="matrix(0.15154113,0,0,0.15154113,11.046357,9.6730704)">
      <g
         id="g1947" />
    </g>
    <g
       style="opacity:1"
       id="g3294"
       transform="matrix(0.13701692,0,0,0.13701695,14.911433,14.647392)">
      <g
         id="g3284" />
    </g>
    <g
       style="opacity:1"
       id="g3937"
       transform="matrix(0.13532556,0,0,0.13532556,15.398233,14.366665)">
      <g
         id="g3925" />
    </g>
    <path
       id="path933"
       style="fill:#000000;stroke-width:0.80812"
       d="M 50.000052,0 A 50,50 0 0 0 0,50.000048 50,50 0 0 0 50.000052,100.0001 50,50 0 0 0 100.0001,50.000048 50,50 0 0 0 50.000052,0 Z M 20.908801,27.181286 h 57.099875 c 0.81356,0 1.4733,0.659736 1.4733,1.473295 v 9.460405 h -5.2e-4 v 25.208795 c 0,5.088242 -4.12463,9.213391 -9.212874,9.213391 h -41.62072 c -5.08824,0 -9.212356,-4.125149 -9.212356,-9.213391 V 38.114986 35.887731 31.837849 28.654581 c 0,-0.813559 0.659266,-1.473295 1.473295,-1.473295 z m 2.575551,10.9337 v 25.208795 c 0,2.851743 2.31177,5.163511 5.16351,5.163511 h 41.62072 c 2.85127,0 5.163514,-2.311768 5.163514,-5.163511 V 38.114986 h -0.13953 z m 14.80272,5.088061 c 0,0 0.20798,0.0058 0.26251,0.01033 1.3575,0.0889 2.02392,0.840393 2.4412,1.539957 0.44343,0.129125 0.93656,0.566891 1.21698,0.845428 0.18647,0.185534 0.34602,0.370404 0.44958,0.519348 0.35512,0.501129 0.3831,1.256729 0.34417,1.801956 -0.0266,0.381156 -0.0974,0.778269 -0.19224,1.088824 -0.003,0.0091 -0.005,0.01716 -0.008,0.02584 0.0344,0.08655 0.0542,0.169363 0.0775,0.253217 0.0674,0.171812 0.11518,0.367146 0.0904,0.603581 -0.0613,0.581699 -0.20319,1.92056 -1.05627,2.040183 -0.13381,0.634828 -0.37162,1.099788 -0.69918,1.375627 v 1.71876 c 0.86258,0.415986 4.10832,2.426229 5.33611,3.572391 0.26763,0.250155 0.39596,0.438113 0.42891,0.627869 l 0.0264,0.136425 c 0.10449,0.524586 0.24627,1.243994 0.30127,1.769401 0.017,0.153987 -0.0312,0.311475 -0.13332,0.430982 -0.10309,0.121383 -0.25392,0.195395 -0.41342,0.203605 l -2.54093,0.167431 c -1.84397,0.07834 -3.75377,0.11834 -5.6844,0.11834 -0.22166,0 -1.74047,-0.01809 -1.74047,-0.01809 -0.75456,-0.0096 -1.50839,-0.0251 -2.26342,-0.04703 0,0 -1.47451,-0.04309 -1.71411,-0.05271 l -2.5554,-0.170532 c -0.15305,-0.0082 -0.30252,-0.08309 -0.40514,-0.204121 -0.10215,-0.119623 -0.15085,-0.277138 -0.13384,-0.432533 0.0541,-0.512154 0.18679,-1.186468 0.29352,-1.728059 l 0.0362,-0.181383 c 0.0394,-0.191987 0.17246,-0.382537 0.43305,-0.621668 1.21923,-1.135724 4.42723,-3.127774 5.31234,-3.562056 l 0.0181,-1.162203 v -0.556038 c -0.21813,-0.187412 -0.39586,-0.478208 -0.54105,-0.879533 -0.0665,-0.183425 -0.11524,-0.359077 -0.14831,-0.50333 -0.87173,-0.110358 -1.0065,-1.469089 -1.05833,-1.993675 -0.01,-0.09758 0.008,-0.174369 0.0139,-0.260451 8.2e-4,-0.01196 0.001,-0.02421 0.002,-0.03617 0.0207,-0.22447 0.0716,-0.423524 0.15814,-0.56379 -0.008,-0.02287 -0.015,-0.04663 -0.0227,-0.07079 -0.35723,-1.594284 -0.1397,-2.099096 0.54157,-3.326413 0.70449,-1.273996 2.41859,-2.478919 3.5264,-2.478919 z m 13.95005,2.412257 h 17.34623 v 3.095934 h -17.34623 z m 0,6.069912 h 0.0186 0.0532 17.2744 v 1.916163 h -17.34623 z m 0,3.820956 h 17.34623 v 1.915644 h -17.34623 z m 0,3.820438 h 0.0186 0.0351 11.48767 v 0.0186 h 5.2e-4 l -5.2e-4,0.0062 v 1.890842 h -11.54141 z" />
    <g
       style="opacity:1"
       id="g1066"
       transform="matrix(0.11727841,0,0,0.11727841,19.435315,19.835902)">
      <g
         id="g1051">
	
	
	
	
	
	
</g>
    </g>
  </g>
  <style
     type="text/css"
     id="style1929">
	.st0{fill:#374149;}
</style>
  <style
     type="text/css"
     id="style3280">
	.st0{fill:#374149;}
</style>
  <style
     type="text/css"
     id="style3917">
	.st0{fill:#374149;}
</style>
  <style
     type="text/css"
     id="style1037">
	.st0{fill:#374149;}
</style>
</svg>
