<?xml version="1.0" encoding="UTF-8" standalone="no"?>
<!-- Created with Inkscape (http://www.inkscape.org/) -->

<svg
   width="100mm"
   height="100mm"
   viewBox="0 0 100 100"
   version="1.1"
   id="svg5"
   inkscape:version="1.1 (c68e22c387, 2021-05-23)"
   sodipodi:docname="intern.svg"
   xmlns:inkscape="http://www.inkscape.org/namespaces/inkscape"
   xmlns:sodipodi="http://sodipodi.sourceforge.net/DTD/sodipodi-0.dtd"
   xmlns="http://www.w3.org/2000/svg"
   xmlns:svg="http://www.w3.org/2000/svg">
  <sodipodi:namedview
     id="namedview7"
     pagecolor="#ffffff"
     bordercolor="#666666"
     borderopacity="1.0"
     inkscape:pageshadow="2"
     inkscape:pageopacity="0.0"
     inkscape:pagecheckerboard="0"
     inkscape:document-units="mm"
     showgrid="false"
     width="100mm"
     inkscape:zoom="0.45254834"
     inkscape:cx="234.22912"
     inkscape:cy="92.807765"
     inkscape:window-width="1191"
     inkscape:window-height="562"
     inkscape:window-x="629"
     inkscape:window-y="285"
     inkscape:window-maximized="0"
     inkscape:current-layer="layer1" />
  <defs
     id="defs2" />
  <g
     inkscape:label="レイヤー 1"
     inkscape:groupmode="layer"
     id="layer1">
    <g
       style="opacity:1"
       id="g1964"
       transform="matrix(0.15154113,0,0,0.15154113,11.046357,9.6730704)">
      <g
         id="g1947">
	
	
	
	
	
	
	
	
</g>
    </g>
    <path
       id="path3176"
       style="fill:#000000;stroke-width:0.345456"
       d="M 50.000047,0 A 50,50 0 0 0 0,50.000048 50,50 0 0 0 50.000047,100.0001 50,50 0 0 0 100.0001,50.000048 50,50 0 0 0 50.000047,0 Z M 39.905574,14.652335 c 0.08476,-0.0071 0.170611,-0.0068 0.256315,0.0021 l 19.870621,2.026749 c 0.406119,0.0411 0.772808,0.26053 1.00149,0.598413 l 7.733895,11.404988 c 0.155377,0.228682 0.23771,0.498266 0.23771,0.774631 v 9.581327 c 0,0.259646 -0.07307,0.514789 -0.211873,0.734838 l -4.689118,7.447092 c -0.06961,0.110297 -0.122232,0.230299 -0.158131,0.355534 l -1.311547,4.584216 c -0.03535,0.123724 -0.05323,0.25133 -0.05323,0.379304 v 2.494939 c 0,0.213746 0.04982,0.424844 0.145728,0.615981 l 1.763199,3.534154 -0.01447,0.01654 2.557983,3.211171 0.713135,0.859896 c 0.01658,0.01973 0.03283,0.03914 0.05064,0.05736 l 4.585767,4.944917 c 1.327147,1.431554 2.130996,3.270411 2.28048,5.216736 l 0.751893,9.82214 c 0.06166,0.801138 -0.57178,1.484665 -1.375111,1.484665 H 45.267519 41.928705 40.195997 39.485961 38.386802 c 0.0011,-0.0074 0.0026,-0.01482 0.0031,-0.02222 h -0.0031 c 0.02083,-0.132767 0.04891,-0.271626 0.07028,-0.406175 0.118931,-0.843065 0.249024,-1.683401 0.412896,-2.515092 0.574236,-3.031363 1.417288,-6.011987 2.510957,-8.894548 0.185248,-0.488328 0.08474,-1.036558 -0.270267,-1.420069 l -0.522449,-0.563274 c -0.389951,-0.420915 -0.343199,-1.082873 0.101285,-1.444871 l 1.614887,-2.473235 -0.214974,-0.904854 0.406694,-0.45992 -3.319693,-3.511415 -0.46147,-0.490924 c -0.239916,-0.255537 -0.374137,-0.593198 -0.374137,-0.944647 v -0.429429 c 0,-0.727287 -0.564583,-1.329939 -1.290362,-1.376661 l -3.316592,-0.21549 -1.383895,-0.08837 c -0.657131,-0.04237 -1.193354,-0.542773 -1.278992,-1.196344 l -0.181901,-1.375627 -0.94206,-7.193875 c -0.05851,-0.445717 -0.329086,-0.83443 -0.726572,-1.042831 l -2.172475,-1.13895 -1.751316,-0.913638 C 24.54319,45.384603 24.32099,44.409296 24.830008,43.728597 l 1.18339,-1.583367 3.620451,-4.853966 c 0.177847,-0.238411 0.273886,-0.527947 0.273886,-0.825273 v -1.841749 l 0.122989,-0.428913 2.683557,-9.10022 0.0052,-0.02067 -1.027842,-1.832446 -0.492993,-0.835091 c -0.358849,-0.607396 -0.201838,-1.387622 0.364318,-1.808675 l 7.636227,-5.678207 c 0.207272,-0.154246 0.452149,-0.24629 0.706416,-0.267684 z M 36.15955,27.751794 c -0.601273,-5.93e-4 -1.147675,0.393549 -1.323435,0.990121 l -1.805575,6.128824 c -0.0374,0.126468 -0.05581,0.257312 -0.05581,0.389123 v 2.225704 c 0,0.297328 -0.09655,0.586864 -0.274402,0.825275 l -3.263369,4.367691 c -0.508881,0.681247 -0.286681,1.655487 0.466638,2.048454 l 2.143541,1.118794 c 0.398444,0.207854 0.670784,0.596704 0.729154,1.042831 l 1.008206,7.655346 c 0.08619,0.653433 0.622344,1.15452 1.280025,1.196311 l 5.050856,0.321426 c 0.726874,0.04604 1.29191,0.648824 1.29191,1.376659 v 2.088763 c 0,0.352955 0.135234,0.692177 0.377753,0.948262 l 1.850017,1.952336 c 0.517925,0.546286 1.385316,0.584491 1.932699,0.06821 5.317353,-5.017289 10.148189,-6.96663 12.94443,-7.715293 0.596297,-0.159623 1.003038,-0.710062 1.003038,-1.327049 0,-0.246494 -0.06597,-0.48863 -0.191201,-0.700733 l -0.34158,-0.579289 c -0.04809,-0.08207 -0.105101,-0.158745 -0.169498,-0.229444 l -4.877739,-5.349544 c -0.223337,-0.244166 -0.351142,-0.560935 -0.360185,-0.891419 l -0.246496,-9.054745 -0.965833,0.03049 -3.739824,2.661335 c -0.263483,0.187439 -0.452398,0.461925 -0.534334,0.775147 l -0.481108,1.840198 c -0.118382,0.452977 -0.457681,0.814435 -0.901753,0.961181 l -1.669148,0.551387 c -0.892802,0.294449 -1.812292,-0.37006 -1.812292,-1.309997 v -5.76244 c 0,-0.372822 -0.150882,-0.729819 -0.418063,-0.989603 l -2.418974,-2.351277 c -0.264031,-0.256495 -0.41488,-0.608139 -0.418579,-0.976167 l -0.02325,-2.497005 c -0.0059,-0.656585 -0.473993,-1.217763 -1.118796,-1.342038 l -2.406575,-0.462502 c -0.08721,-0.01675 -0.174553,-0.02524 -0.260448,-0.02532 z m 24.076049,29.779578 c -2.253792,0.467501 -8.195114,2.307297 -14.612027,9.268167 -0.06166,0.06166 -0.122344,0.129868 -0.183452,0.199472 l 0.106969,0.444418 0.252698,1.096057 0.199988,0.851109 0.45992,1.955438 0.198956,0.857826 0.242361,1.024229 0.06408,-0.05478 0.130741,-0.141078 1.410251,-1.479495 12.281421,-12.917558 -0.09199,-0.19172 -0.0072,-0.01499 z m -15.730823,18.882051 -3.237529,6.300906 0.259932,0.0093 h 0.621151 c 0.517925,0 0.992132,-0.28969 1.22835,-0.750343 l 1.43402,-2.802929 c 0.148802,-0.290338 0.189609,-0.623906 0.115755,-0.94206 l -0.153479,-0.657325 z" />
    <g
       style="opacity:1"
       id="g3294"
       transform="matrix(0.13701692,0,0,0.13701695,14.911433,14.647392)">
      <g
         id="g3284">
	
</g>
    </g>
  </g>
  <style
     type="text/css"
     id="style1929">
	.st0{fill:#374149;}
</style>
  <style
     type="text/css"
     id="style3280">
	.st0{fill:#374149;}
</style>
</svg>
