<?xml version="1.0" encoding="UTF-8" standalone="no"?>
<!-- Created with Inkscape (http://www.inkscape.org/) -->

<svg
   width="100mm"
   height="100mm"
   viewBox="0 0 100 100"
   version="1.1"
   id="svg5"
   inkscape:version="1.1 (c68e22c387, 2021-05-23)"
   sodipodi:docname="original.svg"
   xmlns:inkscape="http://www.inkscape.org/namespaces/inkscape"
   xmlns:sodipodi="http://sodipodi.sourceforge.net/DTD/sodipodi-0.dtd"
   xmlns="http://www.w3.org/2000/svg"
   xmlns:svg="http://www.w3.org/2000/svg">
  <sodipodi:namedview
     id="namedview7"
     pagecolor="#ffffff"
     bordercolor="#666666"
     borderopacity="1.0"
     inkscape:pageshadow="2"
     inkscape:pageopacity="0.0"
     inkscape:pagecheckerboard="0"
     inkscape:document-units="mm"
     showgrid="false"
     width="100mm"
     inkscape:zoom="0.18084315"
     inkscape:cx="1705.8981"
     inkscape:cy="738.20876"
     inkscape:window-width="1694"
     inkscape:window-height="935"
     inkscape:window-x="83"
     inkscape:window-y="52"
     inkscape:window-maximized="0"
     inkscape:current-layer="layer1" />
  <defs
     id="defs2" />
  <g
     inkscape:label="レイヤー 1"
     inkscape:groupmode="layer"
     id="layer1">
    <path
       id="path31"
       style="fill:#000000;stroke-width:0.115925"
       d="M 50.00004,0 A 50,50 0 0 0 0,50.000047 50,50 0 0 0 50.00004,100.0001 50,50 0 0 0 100.00009,50.000047 50,50 0 0 0 50.00004,0 Z M 50.199,16.016593 A 14.77025,14.77025 0 0 1 64.96915,30.787268 14.77025,14.77025 0 0 1 50.199,45.557426 14.77025,14.77025 0 0 1 35.42884,30.787268 14.77025,14.77025 0 0 1 50.199,16.016593 Z M 44.97141,50.481155 H 55.4333 c 9.73013,0 17.69337,7.962969 17.6935,17.699177 v 15.53342 H 27.2712 v -0.02067 -0.04754 -15.465206 c 0,-9.736208 7.96387,-17.699177 17.70021,-17.699177 z" />
    <g
       style="opacity:1"
       id="g248"
       transform="matrix(0.13222077,0,0,0.13222077,16.35053,16.016816)">
      <g
         id="g237">
	
	
</g>
    </g>
  </g>
  <style
     type="text/css"
     id="style132">
	.st0{fill:#374149;}
</style>
  <style
     type="text/css"
     id="style231">
	.st0{fill:#374149;}
</style>
</svg>
