<?xml version="1.0" encoding="UTF-8" standalone="no"?>
<!-- Created with Inkscape (http://www.inkscape.org/) -->

<svg
   width="100mm"
   height="100mm"
   viewBox="0 0 100 100"
   version="1.1"
   id="svg5"
   inkscape:version="1.1 (c68e22c387, 2021-05-23)"
   sodipodi:docname="other.svg"
   xmlns:inkscape="http://www.inkscape.org/namespaces/inkscape"
   xmlns:sodipodi="http://sodipodi.sourceforge.net/DTD/sodipodi-0.dtd"
   xmlns="http://www.w3.org/2000/svg"
   xmlns:svg="http://www.w3.org/2000/svg">
  <sodipodi:namedview
     id="namedview7"
     pagecolor="#ffffff"
     bordercolor="#666666"
     borderopacity="1.0"
     inkscape:pageshadow="2"
     inkscape:pageopacity="0.0"
     inkscape:pagecheckerboard="0"
     inkscape:document-units="mm"
     showgrid="false"
     width="100mm"
     inkscape:zoom="0.32"
     inkscape:cx="-112.5"
     inkscape:cy="21.875"
     inkscape:window-width="1191"
     inkscape:window-height="562"
     inkscape:window-x="629"
     inkscape:window-y="285"
     inkscape:window-maximized="0"
     inkscape:current-layer="layer1" />
  <defs
     id="defs2" />
  <g
     inkscape:label="レイヤー 1"
     inkscape:groupmode="layer"
     id="layer1">
    <g
       style="opacity:1"
       id="g1964"
       transform="matrix(0.15154113,0,0,0.15154113,11.046357,9.6730704)">
      <g
         id="g1947">
	
	
	
	
	
	
	
	
</g>
    </g>
    <g
       style="opacity:1"
       id="g3294"
       transform="matrix(0.13701692,0,0,0.13701695,14.911433,14.647392)">
      <g
         id="g3284">
	
</g>
    </g>
    <g
       style="opacity:1"
       id="g3937"
       transform="matrix(0.13532556,0,0,0.13532556,15.398233,14.366665)">
      <g
         id="g3925">
	
	
	
</g>
    </g>
    <path
       id="path4858"
       style="fill:#000000;stroke-width:1.54557"
       d="M 188.97656 0 A 188.97638 188.97638 0 0 0 0 188.97656 A 188.97638 188.97638 0 0 0 188.97656 377.95312 A 188.97638 188.97638 0 0 0 377.95312 188.97656 A 188.97638 188.97638 0 0 0 188.97656 0 z M 79.65625 83.78125 L 148.87305 83.78125 C 154.79169 83.78125 160.38212 86.308286 165.57031 91.064453 L 166.03516 91.53125 L 184.19531 111.12109 L 269.71094 111.25586 L 269.71094 111.32227 L 269.71094 111.38867 L 269.64453 149.27148 L 284.91016 149.30664 L 301.54102 149.33789 L 301.54102 149.4082 L 301.54102 149.45898 L 301.54102 166.13672 L 301.54102 269.77734 C 301.54102 282.41535 291.06396 292.72656 278.35742 292.72656 L 128.98242 292.49414 C 116.30842 292.49414 105.99937 282.1484 106.0332 269.47656 L 106.06445 245.5625 L 94.556641 245.5293 C 90.532225 245.5293 86.708534 243.93247 83.880859 241.07227 C 81.021086 238.21032 79.457031 234.42047 79.457031 230.39648 L 79.65625 83.78125 z M 122.82812 140.25781 L 122.79688 165.66992 L 122.79688 168.29883 L 122.73047 228.93359 L 122.69531 237.24805 L 122.69531 245.5625 L 122.66211 269.51172 C 122.62784 273.03818 125.49023 275.86328 128.98242 275.86328 L 278.39062 276.09766 C 281.88282 276.09766 284.91016 273.27017 284.91016 269.74414 L 284.91016 166.10156 L 269.64453 166.10156 L 261.32812 166.10156 L 252.97852 166.10156 L 209.375 166.10156 L 190.08398 145.01367 C 186.0921 141.32152 182.56639 140.35805 179.73828 140.32422 L 123.29492 140.25781 L 122.82812 140.25781 z M 265.94531 218.50195 C 267.87491 218.45275 269.75391 219.93548 269.75391 222.19531 L 269.75391 255.1543 C 269.75391 257.19427 268.09856 258.84722 266.05859 258.84375 L 233.19727 258.79492 C 229.91545 258.79015 228.27184 254.823 230.58984 252.50195 L 263.45508 219.58984 C 264.18149 218.86289 265.06822 218.52432 265.94531 218.50195 z "
       transform="scale(0.26458333)" />
    <g
       style="opacity:1"
       id="g4957"
       transform="matrix(0.1147654,0,0,0.1147654,21.022819,20.429011)">
      <g
         id="g4946">
	
	
</g>
    </g>
  </g>
  <style
     type="text/css"
     id="style1929">
	.st0{fill:#374149;}
</style>
  <style
     type="text/css"
     id="style3280">
	.st0{fill:#374149;}
</style>
  <style
     type="text/css"
     id="style3917">
	.st0{fill:#374149;}
</style>
  <style
     type="text/css"
     id="style4467">
	.st0{fill:#374149;}
</style>
  <style
     type="text/css"
     id="style4940">
	.st0{fill:#374149;}
</style>
</svg>
