<?xml version="1.0" encoding="UTF-8" standalone="no"?>
<!-- Created with Inkscape (http://www.inkscape.org/) -->

<svg
   width="100mm"
   height="100mm"
   viewBox="0 0 100 100"
   version="1.1"
   id="svg5"
   inkscape:version="1.1 (c68e22c387, 2021-05-23)"
   sodipodi:docname="school.svg"
   xmlns:inkscape="http://www.inkscape.org/namespaces/inkscape"
   xmlns:sodipodi="http://sodipodi.sourceforge.net/DTD/sodipodi-0.dtd"
   xmlns="http://www.w3.org/2000/svg"
   xmlns:svg="http://www.w3.org/2000/svg">
  <sodipodi:namedview
     id="namedview7"
     pagecolor="#ffffff"
     bordercolor="#666666"
     borderopacity="1.0"
     inkscape:pageshadow="2"
     inkscape:pageopacity="0.0"
     inkscape:pagecheckerboard="0"
     inkscape:document-units="mm"
     showgrid="false"
     width="100mm"
     inkscape:zoom="0.45254834"
     inkscape:cx="747.98639"
     inkscape:cy="211.02718"
     inkscape:window-width="1750"
     inkscape:window-height="539"
     inkscape:window-x="59"
     inkscape:window-y="308"
     inkscape:window-maximized="0"
     inkscape:current-layer="layer1" />
  <defs
     id="defs2" />
  <g
     inkscape:label="レイヤー 1"
     inkscape:groupmode="layer"
     id="layer1">
    <path
       id="path31"
       style="stroke-width:0.132291"
       d="M 50.000052,0 A 50,50 0 0 0 0,50.000052 50,50 0 0 0 50.000052,100.0001 50,50 0 0 0 100.0001,50.000052 50,50 0 0 0 50.000052,0 Z m -1.48725,21.443652 h 2.69028 v 8.14731 l 0.0346,0.0274 6.71328,6.54275 h 23.17171 l 7.51272,15.0518 h -0.0274 l 0.005,0.0109 -1.18545,-0.0109 h -2.63737 v 24.27914 h -69.90581 v -24.27915 h -3.837491 l 0.0119,-0.0243 h -0.0124 l 2.345601,-4.67414 5.16712,-10.35337 h 23.16551 l 6.78822,-6.60425 z m 6.3624,0.75655 c 3.49643,-0.0343 5.25648,1.88438 7.93802,1.11517 v 0.0248 c 0.002,-4.5e-4 0.004,-9.4e-4 0.006,-0.002 l -0.006,1.04232 v 3.76721 c -3.06461,1.50708 -4.92544,-0.76197 -9.55032,0.98909 -10e-4,-2.72062 -10e-4,-4.07333 0,-6.78925 0.57811,-0.0981 1.11281,-0.1429 1.6123,-0.1478 z m -5.03741,11.78222 -2.93678,2.86132 -3.64008,3.54449 -2.98432,2.90267 -1.70739,1.65984 -1.69033,1.649 1.88877,0.0305 h 1.50895 v 24.75715 h 5.63428 v -12.23181 h 7.85379 v 12.23181 h 5.63376 l 5.2e-4,-0.0512 v -24.70595 h 3.39049 l -0.86972,-0.88522 -0.8139,-0.79427 -1.70687,-1.65984 -2.98483,-2.90267 -3.64009,-3.54449 z m 0,8.10287 c 3.38724,0 6.20056,2.50662 6.69261,5.75778 0.0479,0.33446 0.0749,0.66931 0.0749,1.01028 0,1.03169 -0.2318,2.01484 -0.64854,2.88923 -0.5257,1.11277 -1.35208,2.05508 -2.36316,2.7311 -0.51918,0.35521 -1.09289,0.63558 -1.70739,0.82682 -0.53994,0.17761 -1.11314,0.27995 -1.70687,0.3142 -0.11609,0.007 -0.22551,0.007 -0.34159,0.007 -2.69758,0 -5.02655,-1.59199 -6.1128,-3.87935 -0.41689,-0.87424 -0.64854,-1.85739 -0.64854,-2.88923 0,-0.34097 0.0271,-0.67634 0.0749,-1.01079 0.48478,-3.25101 3.29871,-5.75727 6.68641,-5.75727 z m 0,2.04897 c -2.25357,0 -4.13932,1.58445 -4.60334,3.7083 -0.0752,0.32096 -0.10956,0.6627 -0.10956,1.01079 0,1.08625 0.36902,2.09 0.99064,2.88923 0.86075,1.11277 2.20609,1.83023 3.72226,1.83038 0.11592,0 0.2255,-0.007 0.34158,-0.0207 0.60722,-0.0343 1.18769,-0.19139 1.70687,-0.45113 0.66239,-0.31385 1.23598,-0.785 1.68,-1.35858 0.0135,-0.0142 0.021,-0.0277 0.0274,-0.0413 0.60798,-0.79211 0.96325,-1.78241 0.96325,-2.84789 0,-0.34809 -0.0344,-0.68983 -0.10955,-1.01079 -0.46417,-2.12385 -2.34885,-3.7083 -4.60954,-3.7083 z m -0.68317,1.40715 h 1.3653 v 3.56464 l -0.34055,0.40307 -1.72134,2.02159 -1.03767,-0.88109 0.015,-0.0186 h 5.2e-4 l 1.5074,-1.77767 0.21136,-0.2527 z m -30.1718,4.98832 v 18.30328 h 17.8785 v -18.30276 l -0.03,-5.2e-4 z m 43.8304,0 v 18.30328 h 17.87953 v -18.30276 l -0.0305,-5.2e-4 z m -38.06641,5.88699 h 2.47169 v 5.47718 h -2.47169 z m 4.19303,0 h 2.46496 v 0.0248 0.0165 5.43584 h -2.46496 z m 39.5149,0 h 2.47168 v 5.47718 h -2.47168 v -0.0243 h -5.2e-4 l 5.2e-4,-0.0331 z m 4.19251,0 h 2.46548 v 0.0248 h 5.2e-4 l -5.2e-4,0.0165 v 5.43584 h -2.46548 z" />
    <g
       style="opacity:1"
       id="g1964"
       transform="matrix(0.15154113,0,0,0.15154113,11.046357,9.6730704)">
      <g
         id="g1947">
	
	
	
	
	
	
	
	
</g>
    </g>
  </g>
  <style
     type="text/css"
     id="style1929">
	.st0{fill:#374149;}
</style>
</svg>
